#!OML:ASF H:\MichaelJackson\Top Level 1\Subject 1\Session 1\male.ASF
:FULLY-SPECIFIED
:DEGREES
630
root 2.09094 16.027 10.9629 -103.279 57.5417 -123.568
lowerback 7.30593 0.524707 -7.56136
upperback -2.70007 0.23035 3.98932
thorax -7.04957 0.575142 8.53928
lowerneck -1.26845 -20.8398 -12.5665
upperneck -1.4966 -29.3372 27.6892
head 5.95904 -14.1972 7.44564
rclavicle 1.11319e-014 4.13472e-014
rhumerus -39.0971 5.93871 -88.6777
rradius 46.6416
rwrist 11.0707
rhand -30.9282 -14.0366
rfingers 7.12502
rthumb -4.21377 316.025
lclavicle 1.11319e-014 4.13472e-014
lhumerus -15.3717 -28.8821 91.4775
lradius 61.7893
lwrist 17.0623
lhand -9.32805 -0.0759168
lfingers 7.12502
lthumb 16.6306 29.2316
rfemur -18.0376 -6.47711 -5.08501
rtibia 36.839
rfoot 35.0918 4.17567
rtoes 15.6562
lfemur -56.1406 9.00256 14.2036
ltibia 60.2336
lfoot -31.9433 -15.2237
ltoes -6.30466
631
root 2.11041 15.969 11.0942 -104.841 56.9225 -125.622
lowerback 7.33879 0.532153 -7.81993
upperback -2.69957 0.192487 3.77362
thorax -7.06188 0.560606 8.45807
lowerneck -1.10907 -20.8789 -12.6597
upperneck -1.72524 -29.3814 27.8522
head 5.91634 -14.2438 7.51386
rclavicle -3.18055e-014 0
rhumerus -39.1443 6.19645 -89.2699
rradius 45.7625
rwrist 11.8389
rhand -30.8902 -13.6663
rfingers 7.12502
rthumb -4.17712 316.395
lclavicle -3.18055e-014 0
lhumerus -15.2352 -28.2101 90.3577
lradius 63.0844
lwrist 17.4911
lhand -11.0718 -0.495054
lfingers 7.12502
lthumb 14.9514 28.9453
rfemur -16.394 -5.64368 -4.57432
rtibia 33.7558
rfoot 34.9141 2.66768
rtoes 15.9895
lfemur -57.4237 8.97609 14.6453
ltibia 60.6921
lfoot -32.0915 -16.185
ltoes -6.0048
632
root 2.12976 15.9104 11.2265 -106.304 56.3001 -127.561
lowerback 7.40766 0.536792 -8.06756
upperback -2.70103 0.149627 3.56022
thorax -7.09606 0.544623 8.37431
lowerneck -0.985855 -20.9122 -12.7518
upperneck -1.89602 -29.4249 27.9835
head 5.89119 -14.2839 7.56779
rclavicle 3.33958e-014 4.45278e-014
rhumerus -39.278 6.49199 -89.8693
rradius 45.0681
rwrist 12.6118
rhand -30.8894 -13.2974
rfingers 7.12502
rthumb -4.17633 316.764
lclavicle 3.33958e-014 4.45278e-014
lhumerus -15.0136 -27.4218 89.1961
lradius 64.1122
lwrist 17.8371
lhand -13.0553 -0.983433
lfingers 7.12502
lthumb 13.0399 28.589
rfemur -14.7856 -4.78965 -4.07154
rtibia 30.7248
rfoot 34.7828 1.05071
rtoes 16.2305
lfemur -58.6809 8.95899 15.0704
ltibia 61.1234
lfoot -32.2073 -17.1161
ltoes -5.72595
633
root 2.14857 15.8514 11.3604 -107.66 55.7091 -129.366
lowerback 7.51686 0.545062 -8.34112
upperback -2.69546 0.105473 3.34516
thorax -7.14619 0.529917 8.30458
lowerneck -0.890895 -20.9368 -12.8447
upperneck -2.0405 -29.4604 28.1179
head 5.87814 -14.3158 7.62057
rclavicle -5.56597e-014 2.8625e-014
rhumerus -39.4774 6.85303 -90.4834
rradius 44.5341
rwrist 13.2698
rhand -30.9425 -12.9401
rfingers 7.12502
rthumb -4.22761 317.122
lclavicle -5.56597e-014 2.8625e-014
lhumerus -14.6918 -26.5006 87.9959
lradius 64.8896
lwrist 18.0899
lhand -15.1487 -1.46637
lfingers 7.12502
lthumb 11.0214 28.2243
rfemur -13.2404 -3.91393 -3.60514
rtibia 27.7796
rfoot 34.7401 -0.514794
rtoes 16.2644
lfemur -59.8957 8.97252 15.4506
ltibia 61.5277
lfoot -32.2861 -18.0282
ltoes -5.45596
634
root 2.16628 15.7923 11.496 -108.892 55.1699 -131.007
lowerback 7.67785 0.571274 -8.64046
upperback -2.67992 0.077051 3.1181
thorax -7.21919 0.524849 8.23513
lowerneck -0.806066 -20.9553 -12.9489
upperneck -2.18676 -29.4911 28.2947
head 5.87548 -14.3435 7.68616
rclavicle -3.18055e-015 -2.54444e-014
rhumerus -39.718 7.24487 -91.1101
rradius 44.1173
rwrist 13.7391
rhand -31.043 -12.5706
rfingers 7.12502
rthumb -4.32465 317.494
lclavicle -3.18055e-015 -2.54444e-014
lhumerus -14.2713 -25.4556 86.7579
lradius 65.4526
lwrist 18.2576
lhand -17.2004 -1.87393
lfingers 7.12502
lthumb 9.04201 27.9123
rfemur -11.7823 -3.01799 -3.18388
rtibia 24.9417
rfoot 34.8325 -1.99371
rtoes 16.3461
lfemur -61.0462 9.04724 15.7774
ltibia 61.906
lfoot -32.3304 -18.9374
ltoes -5.20218
